HIERARCHY
ROOT Hips
{
	OFFSET 0.0000 0.0000 0.0000
	CHANNELS 6 Xposition Yposition Zposition Zrotation Xrotation Yrotation
	JOINT Spine1
	{
		OFFSET -0.0137 5.0038 -0.0537
		CHANNELS 3 Zrotation Xrotation Yrotation
		JOINT Spine2
		{
			OFFSET -0.0000 7.1253 -0.0298
			CHANNELS 3 Zrotation Xrotation Yrotation
			JOINT Chest
			{
				OFFSET -0.0000 7.5501 -0.8160
				CHANNELS 3 Zrotation Xrotation Yrotation
				JOINT Neck1
				{
					OFFSET -0.1817 26.3113 -0.5533
					CHANNELS 3 Zrotation Xrotation Yrotation
					JOINT Neck2
					{
						OFFSET -0.0000 7.7094 2.3026
						CHANNELS 3 Zrotation Xrotation Yrotation
						JOINT Head
						{
							OFFSET -0.0000 6.1289 1.9537
							CHANNELS 3 Zrotation Xrotation Yrotation
							JOINT Jaw
							{
								OFFSET 0.0026 0.4756 3.0949
								CHANNELS 3 Zrotation Xrotation Yrotation
								End Site
								{
									OFFSET 0.0 1.0 0.0
								}
							}
							JOINT LeftEye
							{
								OFFSET 3.2064 5.3802 7.5869
								CHANNELS 3 Zrotation Xrotation Yrotation
								End Site
								{
									OFFSET 0.0 1.0 0.0
								}
							}
							JOINT RightEye
							{
								OFFSET -3.2224 5.3619 7.5582
								CHANNELS 3 Zrotation Xrotation Yrotation
								End Site
								{
									OFFSET 0.0 1.0 0.0
								}
							}
						}
					}
				}
				JOINT LeftShoulder
				{
					OFFSET 1.6217 23.2372 5.1134
					CHANNELS 3 Zrotation Xrotation Yrotation
					JOINT LeftArm
					{
						OFFSET 14.9198 0.0000 -5.5023
						CHANNELS 3 Zrotation Xrotation Yrotation
						JOINT LeftForeArm
						{
							OFFSET 28.7393 0.0000 -0.0026
							CHANNELS 3 Zrotation Xrotation Yrotation
							JOINT LeftHand
							{
								OFFSET 27.0940 -0.0000 0.0026
								CHANNELS 3 Zrotation Xrotation Yrotation
								JOINT LeftHandThumbEnd
								{
									OFFSET 12.2686 -3.2202 4.8331
									CHANNELS 3 Zrotation Xrotation Yrotation
									End Site
									{
										OFFSET 0.0 1.0 0.0
									}
								}
								JOINT LeftHandMiddleEnd
								{
									OFFSET 19.0120 -0.3129 -0.0340
									CHANNELS 3 Zrotation Xrotation Yrotation
									End Site
									{
										OFFSET 0.0 1.0 0.0
									}
								}
							}
						}
					}
				}
				JOINT RightShoulder
				{
					OFFSET -1.3801 23.1803 5.2142
					CHANNELS 3 Zrotation Xrotation Yrotation
					JOINT RightArm
					{
						OFFSET -15.0372 0.0000 -5.5456
						CHANNELS 3 Zrotation Xrotation Yrotation
						JOINT RightForeArm
						{
							OFFSET -28.7366 0.0000 -0.0026
							CHANNELS 3 Zrotation Xrotation Yrotation
							JOINT RightHand
							{
								OFFSET -27.1336 -0.0000 0.0026
								CHANNELS 3 Zrotation Xrotation Yrotation
								JOINT RightHandThumbEnd
								{
									OFFSET -12.2642 -3.2115 4.8040
									CHANNELS 3 Zrotation Xrotation Yrotation
									End Site
									{
										OFFSET 0.0 1.0 0.0
									}
								}
								JOINT RightHandMiddleEnd
								{
									OFFSET -19.0006 -0.3066 -0.0316
									CHANNELS 3 Zrotation Xrotation Yrotation
									End Site
									{
										OFFSET 0.0 1.0 0.0
									}
								}
							}
						}
					}
				}
			}
		}
	}
	JOINT LeftLeg
	{
		OFFSET 10.0432 -8.4345 2.5957
		CHANNELS 3 Zrotation Xrotation Yrotation
		JOINT LeftShin
		{
			OFFSET -0.0000 -43.2218 -0.8029
			CHANNELS 3 Zrotation Xrotation Yrotation
			JOINT LeftFoot
			{
				OFFSET 0.0000 -42.1551 -3.4815
				CHANNELS 3 Zrotation Xrotation Yrotation
				JOINT LeftToeBase
				{
					OFFSET 0.0000 -5.0595 13.2315
					CHANNELS 3 Zrotation Xrotation Yrotation
					End Site
					{
						OFFSET 0.0 1.0 0.0
					}
				}
			}
		}
	}
	JOINT RightLeg
	{
		OFFSET -10.0473 -8.2953 2.6203
		CHANNELS 3 Zrotation Xrotation Yrotation
		JOINT RightShin
		{
			OFFSET 0.0000 -43.3622 -0.8056
			CHANNELS 3 Zrotation Xrotation Yrotation
			JOINT RightFoot
			{
				OFFSET 0.0000 -42.1174 -3.4784
				CHANNELS 3 Zrotation Xrotation Yrotation
				JOINT RightToeBase
				{
					OFFSET -0.0000 -5.0796 13.2842
					CHANNELS 3 Zrotation Xrotation Yrotation
					End Site
					{
						OFFSET 0.0 1.0 0.0
					}
				}
			}
		}
	}
}
MOTION
Frames: 10
Frame Time: 0.033333
0.5924 93.4789 -0.7649 0.4365 -0.8171 2.5491 -0.1095 4.7592 0.9449 -0.4266 -2.5077 4.4321 2.2221 6.6859 3.1782 -13.2815 -11.4091 7.0600 -1.2186 -4.3615 -2.2068 -5.0071 -5.4551 -0.8407 0.0540 -0.0666 -0.2142 0.8398 -10.9590 -4.0886 -0.7538 -10.8667 3.6433 29.2529 -4.8965 -5.0914 -7.7288 -49.5830 -77.6625 6.4024 2.8162 -39.0209 17.5691 68.2297 32.5453 -14.8774 10.4043 12.7343 -57.8488 1.9928 1.3550 2.9861 3.5679 31.1604 18.9399 -47.9279 34.1063 1.6748 0.9802 77.0142 -26.2217 41.9602 13.9424 17.0806 6.8711 -15.6698 50.3399 -3.2541 -5.5640 13.0783 -27.0301 1.8571 -0.3015 36.0078 -0.5924 -15.7758 -4.8490 11.5175 1.6089 -1.2045 -2.4322 -19.9789 -11.5777 -26.8383 0.3228 26.8426 1.0972 22.4018 -7.9597 -17.7296 -1.4516 -1.0851 0.7427
-0.1196 93.6199 -1.1607 -0.1404 0.8294 2.3220 -0.7490 5.4335 0.7197 -0.7120 -2.2818 4.3732 -0.3587 7.1975 2.5963 -13.7805 -11.4059 6.8446 -0.5624 -4.4224 -1.2502 -3.9748 -5.4512 -0.2055 0.0748 -0.0815 -0.2547 0.8566 -11.0881 -4.1629 -0.7283 -10.9747 3.6264 24.8832 -3.4851 -5.7642 -14.5010 -55.5368 -75.5913 6.9594 4.5220 -42.6496 163.2239 76.5491 -179.0901 -15.5472 9.8480 12.5105 -58.1068 2.1387 1.9226 0.6653 3.7506 29.3842 15.9357 -47.6125 41.4314 1.8031 1.7225 80.7944 -20.0929 41.7051 11.0366 16.8983 6.6993 -15.3033 49.5143 -3.0645 -5.4513 13.9406 -29.1597 3.2576 -0.3078 35.2373 -0.6393 -15.3343 -3.4939 10.1983 1.6251 -1.1619 -2.3724 -18.0521 -13.1582 -26.1571 0.3420 27.6981 1.1004 22.0188 -7.9603 -17.9868 -1.4314 -1.2091 0.8168
-0.8934 93.6803 -1.7486 -0.8613 2.2916 1.7052 -1.4563 6.3906 0.4536 -1.1059 -1.9332 4.1151 -3.0765 7.8719 1.7557 -13.5611 -11.2368 6.4785 0.0481 -4.3612 0.0214 -3.0720 -6.0918 0.9332 0.0809 -0.0662 -0.3266 0.8570 -11.1231 -4.2623 -0.7150 -11.0073 3.5768 21.0173 -1.2206 -7.8177 -25.9503 -61.3293 -64.9241 6.0578 5.3624 -46.3940 176.9724 42.6114 -159.6011 -17.0147 9.1868 12.8459 -59.7077 2.0321 2.3683 -3.1369 3.7937 26.6917 15.7919 -49.3658 47.6474 1.7306 2.3826 82.5974 -16.4206 43.0626 7.0064 16.5813 6.5490 -15.2224 48.7856 -2.9614 -5.3849 14.9545 -31.2785 4.8020 -0.3305 34.5916 -0.6912 -15.1153 -2.0640 8.8852 1.6468 -1.1402 -2.3246 -15.9847 -14.9119 -25.0376 0.3449 28.9988 1.0911 21.4454 -8.3111 -18.1289 -1.4218 -1.2425 0.8777
-1.6327 93.6119 -2.5393 -1.9280 3.6119 0.7252 -2.1321 7.4810 0.2767 -1.6182 -1.4982 3.7209 -5.6679 8.6542 0.7871 -12.9141 -10.9475 6.1452 0.5331 -4.1992 1.1660 -2.3282 -7.0134 2.3184 0.0863 -0.0330 -0.3927 0.8523 -11.0474 -4.3384 -0.6979 -10.9482 3.5157 17.8239 1.2620 -10.3357 -40.6888 -65.4425 -47.7543 4.1453 5.1129 -50.3932 174.5383 15.7874 -153.6501 -17.5958 8.6608 12.9142 -60.7552 1.7453 2.4522 -6.9799 3.6571 23.5027 15.9580 -51.5522 53.6898 1.2549 2.5045 83.1747 -15.1612 45.7142 2.7643 16.3039 6.6288 -15.3878 48.3999 -2.9693 -5.4050 16.4435 -33.6035 6.0197 -0.3707 34.4917 -0.7416 -15.1018 -0.8288 7.9013 1.6642 -1.1012 -2.3109 -13.6817 -16.9636 -24.2671 0.3553 30.7108 1.0391 20.9162 -8.9279 -17.4299 -1.4215 -1.2094 0.9086
-2.3116 93.3862 -3.4160 -3.3928 4.8483 -0.7482 -2.7857 8.5002 0.2594 -2.1845 -1.0419 3.3852 -7.9677 9.5999 -0.2058 -12.2689 -10.6913 5.9937 0.7677 -4.0267 2.0578 -1.7263 -7.8396 3.4755 0.1060 -0.0043 -0.4235 0.8587 -10.9331 -4.3666 -0.6632 -10.8492 3.4749 15.2213 3.1868 -12.5916 -53.5776 -66.5602 -31.1200 2.1700 3.8444 -54.0487 170.0691 -2.7266 -149.7603 -17.4837 8.2675 12.7182 -61.3802 1.4885 2.4147 -9.1358 3.5595 20.8012 13.7850 -52.2766 60.4235 0.6884 2.2411 82.8245 -16.1495 47.9981 -0.7966 16.2593 6.9186 -15.6449 48.5574 -3.0383 -5.4684 18.6392 -36.1777 6.3901 -0.4346 35.1838 -0.7951 -15.2083 -0.0073 7.6280 1.6684 -1.0734 -2.2992 -11.1379 -19.3615 -24.3819 0.4230 32.6935 1.0300 20.6142 -9.4962 -15.5709 -1.4250 -1.3129 0.9377
-2.7742 92.9440 -4.3447 -5.0180 5.9156 -2.5989 -3.4237 9.4086 0.3857 -2.7030 -0.6058 3.1087 -9.9728 10.6474 -1.0756 -11.9690 -10.4035 6.1708 0.8617 -3.8939 2.7398 -1.5086 -8.4891 4.3970 0.1337 0.0120 -0.4186 0.8737 -10.8402 -4.3610 -0.6217 -10.7654 3.4715 13.0345 4.3906 -14.3913 -61.3606 -65.8339 -19.5247 0.5077 2.4251 -57.1448 166.8268 -15.4708 -147.2917 -17.1951 7.9017 12.4218 -62.0929 1.3402 2.3364 -10.0142 3.6607 18.8313 10.3531 -51.3254 66.8767 0.3240 1.8846 81.7713 -18.2291 50.0430 -4.1002 16.3885 7.2559 -15.8344 49.0472 -3.0443 -5.5096 21.3343 -38.8054 5.8609 -0.5408 36.7271 -0.9030 -15.3265 0.2336 8.0720 1.6631 -0.8689 -2.2654 -8.5613 -22.0209 -25.2824 0.5322 35.0570 1.0425 20.3279 -10.0103 -12.8718 -1.4293 -1.4262 0.9485
-3.0200 92.3068 -5.3274 -6.4478 6.8126 -4.5912 -4.0347 10.2776 0.5970 -3.1701 -0.1535 2.9268 -11.8102 11.7108 -1.7966 -12.2634 -10.0874 6.6977 0.8786 -3.8019 3.1627 -1.6613 -9.0176 4.9663 0.1466 0.0206 -0.3529 0.8775 -10.7702 -4.3010 -0.5994 -10.7151 3.5421 11.2946 4.9940 -15.7217 -64.7457 -64.6321 -12.9382 -0.6412 1.4868 -59.5136 165.2462 -23.6430 -145.9196 -17.2364 7.5673 12.1138 -62.8261 1.2414 2.1247 -10.3548 4.0302 17.3537 6.7344 -48.9499 72.4198 0.0332 1.7937 80.0023 -20.7619 51.8919 -7.7843 16.6490 7.5813 -15.8621 49.7950 -2.9051 -5.4981 24.0641 -41.4001 4.7219 -0.6280 38.9917 -1.0127 -15.4287 -0.0336 8.8929 1.6522 -0.5656 -2.2287 -6.1833 -24.9656 -26.7734 0.6606 37.8393 1.1096 19.7747 -10.4811 -10.0477 -1.4244 -1.4658 0.9430
-3.0381 91.5337 -6.3112 -7.4366 7.6358 -6.3191 -4.5673 11.1104 0.8259 -3.5586 0.3244 2.8190 -13.4518 12.7252 -2.3788 -13.0845 -9.6982 7.4633 0.8630 -3.7580 3.1765 -2.0434 -9.3116 4.9420 0.1237 0.0121 -0.2594 0.8552 -10.7271 -4.2073 -0.6231 -10.6937 3.6483 10.3060 5.2436 -16.5032 -66.0088 -63.7164 -9.5778 -1.0583 0.8560 -61.2222 163.6485 -28.9565 -144.9254 -17.3628 7.3745 11.9877 -63.1455 1.1436 2.0070 -10.4958 4.4828 16.2274 4.1841 -45.5635 75.8395 -0.4127 1.8022 78.2724 -23.0291 53.3238 -11.4881 17.0883 7.7299 -15.8842 50.8836 -2.7749 -5.4735 26.3412 -43.9603 3.3595 -0.7349 41.5917 -1.1474 -15.5689 -0.5385 9.8187 1.6490 -0.3547 -2.2125 -4.2064 -27.9972 -28.5671 0.7972 40.6925 1.2230 19.0004 -11.1365 -7.7732 -1.4178 -1.2152 0.9376
-2.9012 90.6689 -7.3357 -8.1229 8.4826 -7.6722 -4.9543 11.9290 0.9866 -3.8932 0.8226 2.7657 -14.8454 13.6770 -2.8665 -14.0867 -9.2202 8.2366 0.8493 -3.7457 2.8981 -2.4229 -9.3986 4.3991 0.0790 -0.0032 -0.1650 0.8140 -10.7004 -4.0973 -0.6738 -10.6828 3.7464 9.7550 5.3450 -16.8954 -66.2140 -62.9781 -8.1073 -1.0327 0.3460 -62.5230 162.1331 -32.4572 -144.1482 -17.3244 7.3223 11.9340 -63.2708 1.0724 1.9927 -10.3709 4.9872 15.3202 3.2601 -41.8328 76.7796 -0.8605 2.0002 77.3482 -24.5892 54.4698 -14.7102 17.6232 7.6571 -15.8979 51.8578 -2.7659 -5.4786 28.3063 -46.5520 1.7418 -0.8647 44.2559 -1.3035 -15.7602 -1.1180 10.6877 1.6497 -0.2141 -2.2095 -2.4199 -31.0491 -30.5203 0.9222 43.5147 1.3325 18.1807 -11.8536 -5.9581 -1.4161 -0.8895 0.9347
-2.7083 89.7457 -8.2926 -8.6182 9.3804 -8.6538 -5.2371 12.7311 1.0949 -4.1676 1.3473 2.6925 -15.9792 14.5144 -3.3100 -14.9866 -8.7598 8.7389 0.8799 -3.7346 2.5260 -2.6425 -9.4520 3.6079 0.0287 -0.0103 -0.0866 0.7700 -10.6602 -3.9953 -0.7320 -10.6609 3.8215 9.2765 5.4792 -17.1055 -65.6724 -62.2952 -7.7940 -0.8552 0.1459 -63.2433 161.1901 -34.1499 -143.6537 -17.0953 7.3453 11.8336 -63.2617 1.0242 1.9781 -9.9544 5.5293 14.4983 4.1830 -38.4088 75.4499 -1.0167 2.4362 77.4959 -24.7181 55.6782 -17.0639 18.1636 7.4903 -15.9729 52.6365 -2.7967 -5.5264 30.1261 -49.1585 -0.0641 -0.9855 46.8380 -1.4590 -16.0143 -1.6854 11.3734 1.6577 -0.1821 -2.2150 -0.7164 -34.0052 -32.5945 1.0296 46.2161 1.4375 17.2851 -12.5077 -4.5391 -1.4223 -0.6555 0.9142
